<svg width="121" height="40" viewBox="0 0 121 40" fill="none" xmlns="http://www.w3.org/2000/svg">
    <g clip-path="url(#clip0_2988_409)">
        <path
            d="M12.901 39.9928H29.7918C31.3418 39.9928 32.7688 39.1474 33.5132 37.7882L42.1474 22.0301C42.8433 20.7597 42.8433 19.2219 42.1474 17.952L33.5132 2.19385C32.7688 0.834666 31.3418 -0.0107422 29.7918 -0.0107422H12.901C11.351 -0.0107422 9.92446 0.834666 9.17956 2.19385L0.545376 17.952C-0.150542 19.2219 -0.150542 20.7597 0.545376 22.0301L9.17956 37.7882C9.92446 39.1474 11.351 39.9928 12.901 39.9928ZM15.7515 5.19181H26.9413C28.4913 5.19181 29.9183 6.03722 30.6627 7.3964L36.4459 17.9525C37.1423 19.2224 37.1423 20.7602 36.4459 22.0306L30.6627 32.5867C29.9183 33.9459 28.4913 34.7913 26.9413 34.7913H15.7515C14.2015 34.7913 12.7745 33.9459 12.0301 32.5867L6.2464 22.0306C5.54997 20.7602 5.54997 19.2224 6.2464 17.9525L12.0301 7.3964C12.7745 6.03722 14.2015 5.19181 15.7515 5.19181Z"
            fill="#1C5DAA" />
        <path
            d="M8.11914 20.1391C8.11914 17.0845 10.5957 14.6074 13.6503 14.6074C16.7049 14.6074 19.1814 17.084 19.1814 20.1391C19.1814 23.1942 16.7054 25.6702 13.6503 25.6702C10.5952 25.6702 8.11914 23.1936 8.11914 20.1391Z"
            fill="#161615" />
        <path
            d="M23.5332 20.3407C23.5332 17.2861 26.0097 14.8096 29.0643 14.8096C32.1189 14.8096 34.5954 17.2856 34.5954 20.3407C34.5954 23.3958 32.1194 25.8718 29.0643 25.8718C26.0092 25.8718 23.5332 23.3958 23.5332 20.3407Z"
            fill="#161615" />
        <path
            d="M50.4086 12.8339C54.7586 12.8339 57.1489 15.4956 57.1489 19.6885C57.1489 24.341 54.6361 27.1481 50.2948 27.1481H45.4336V12.8339H50.4086ZM48.3703 24.8497H50.2642C52.7974 24.8497 54.1316 22.9522 54.1316 19.7328C54.1316 17.0726 52.9356 15.1691 50.2851 15.1691H48.3703V24.8497ZM62.6173 12.8339V27.1481H59.6994V12.8339H62.6173ZM77.2989 27.1481H75.1525C75.053 26.6803 74.9744 26.0216 74.9351 25.4864C74.1989 26.915 72.7627 27.3573 70.9683 27.3573C67.2239 27.3573 65.2509 24.2405 65.2509 20.0721C65.2509 15.9038 67.5764 12.6436 71.7958 12.6436C75.2045 12.6436 76.9703 14.5471 77.3219 16.9405H74.4591C74.1918 16.0385 73.5688 14.9839 71.6275 14.9839C69.1356 14.9839 68.2494 17.3629 68.2494 20.0905C68.2494 22.818 69.205 25.0354 71.6219 25.0354C73.7775 25.0354 74.4015 23.5323 74.4015 21.6946V21.6267H71.4111V19.1553H77.2984V27.1481H77.2989ZM83.0836 12.8339V27.1481H80.1657V12.8339H83.0836Z"
            fill="#1C5DAA" />
        <path
            d="M95.3964 20.9024H89.1735V24.7554H96.0439L95.6929 27.1483H86.3291V12.834H95.6572V15.2452H89.1735V18.4886H95.3964V20.9024ZM101.509 27.1483V21.7534C101.509 21.5911 101.483 21.4427 101.386 21.2906L96.8567 12.834H100.144C101.15 14.9896 102.465 17.7212 103.103 19.0549C104.041 17.0187 105.131 14.8217 106.064 12.834H109.105L104.544 21.2294C104.463 21.3656 104.427 21.4702 104.427 21.6692V27.1483H101.509ZM119.517 20.9024H113.294V24.7554H120.165L119.814 27.1483H110.45V12.834H119.778V15.2452H113.294V18.4886H119.517V20.9024Z"
            fill="#161615" />
        <path
            d="M45.248 29.5159C45.5715 29.4674 45.9562 29.4307 46.3771 29.4307C47.1394 29.4307 47.6827 29.6072 48.0429 29.9429C48.4088 30.2791 48.6225 30.7546 48.6225 31.4199C48.6225 32.0853 48.4154 32.6398 48.0307 33.0184C47.646 33.4031 47.0113 33.6103 46.2123 33.6103C45.8338 33.6103 45.5169 33.5924 45.248 33.5618V29.5154V29.5159ZM45.7792 33.1531C45.9134 33.1776 46.1088 33.1837 46.3159 33.1837C47.4511 33.1837 48.0674 32.5485 48.0674 31.4383C48.0736 30.4684 47.5241 29.8521 46.4016 29.8521C46.1266 29.8521 45.9195 29.8761 45.7792 29.9067V33.1531Z"
            fill="#161615" />
        <path d="M49.8417 29.4609V33.5737H49.3105V29.4609H49.8417Z" fill="#161615" />
        <path
            d="M53.8984 33.3904C53.6606 33.4761 53.1913 33.6164 52.6356 33.6164C52.0132 33.6164 51.5004 33.4578 51.0974 33.0736C50.7433 32.7317 50.5244 32.1823 50.5244 31.5419C50.5305 30.3154 51.3724 29.418 52.7514 29.418C53.2275 29.418 53.5994 29.5221 53.777 29.6073L53.6489 30.0404C53.429 29.943 53.1545 29.8639 52.7397 29.8639C51.7387 29.8639 51.0856 30.4863 51.0856 31.518C51.0856 32.5496 51.7142 33.1777 52.6724 33.1777C53.0198 33.1777 53.2581 33.1287 53.3805 33.0675V31.8414H52.5443V31.4144H53.8984V33.3909V33.3904Z"
            fill="#161615" />
        <path d="M55.2411 29.4609V33.5737H54.71V29.4609H55.2411Z" fill="#161615" />
        <path
            d="M56.9488 29.9125H55.6982V29.4609H58.7431V29.9125H57.4865V33.5737H56.9493V29.9125H56.9488Z"
            fill="#161615" />
        <path
            d="M59.414 32.2798L58.987 33.5737H58.4375L59.8349 29.4609H60.4753L61.8788 33.5737H61.3115L60.8717 32.2798H59.414ZM60.7625 31.8655L60.36 30.6813C60.2681 30.413 60.2074 30.1686 60.1462 29.9308H60.1344C60.0732 30.1752 60.0064 30.4252 59.9268 30.6752L59.5242 31.8655H60.763H60.7625Z"
            fill="#161615" />
        <path d="M62.4814 29.4609H63.0126V33.1278H64.7702V33.5737H62.4814V29.4609Z" fill="#161615" />
        <path
            d="M67.1909 29.9125H65.9404V29.4609H68.9853V29.9125H67.7287V33.5737H67.1915V29.9125H67.1909Z"
            fill="#161615" />
        <path
            d="M69.9735 29.4609V31.1813H71.9628V29.4609H72.4995V33.5737H71.9628V31.6456H69.9735V33.5737H69.4424V29.4609H69.9735Z"
            fill="#161615" />
        <path d="M73.952 29.4609V33.5737H73.4209V29.4609H73.952Z" fill="#161615" />
        <path
            d="M74.8784 33.5737V29.4609H75.458L76.7764 31.5421C77.0815 32.0237 77.3193 32.4574 77.5142 32.8783L77.5269 32.8717C77.4779 32.3232 77.4657 31.8222 77.4657 31.1813V29.4609H77.9657V33.5737H77.429L76.1223 31.487C75.8361 31.0293 75.5611 30.5589 75.354 30.114L75.3356 30.1201C75.3662 30.639 75.379 31.1329 75.379 31.8165V33.5742H74.8779L74.8784 33.5737Z"
            fill="#161615" />
        <path
            d="M82.0224 33.3904C81.7847 33.4761 81.3153 33.6164 80.7597 33.6164C80.1367 33.6164 79.6245 33.4578 79.2214 33.0736C78.8678 32.7317 78.6484 32.1823 78.6484 31.5419C78.6546 30.3154 79.4964 29.418 80.8755 29.418C81.3515 29.418 81.7234 29.5221 81.901 29.6073L81.7729 30.0404C81.553 29.943 81.2785 29.8639 80.8637 29.8639C79.8627 29.8639 79.2097 30.4863 79.2097 31.518C79.2097 32.5496 79.8382 33.1777 80.7964 33.1777C81.1438 33.1777 81.3821 33.1287 81.5035 33.0675V31.8414H80.6678V31.4144H82.0219V33.3909L82.0224 33.3904Z"
            fill="#161615" />
        <path
            d="M82.7606 32.9267C82.9984 33.0737 83.3463 33.1951 83.7122 33.1951C84.2555 33.1951 84.5729 32.9089 84.5729 32.4936C84.5729 32.1089 84.353 31.889 83.7979 31.6757C83.1264 31.4374 82.7111 31.09 82.7111 30.5099C82.7111 29.8691 83.2423 29.3936 84.0417 29.3936C84.4627 29.3936 84.7683 29.491 84.9509 29.5946L84.805 30.0277C84.6708 29.9548 84.3958 29.8323 84.0239 29.8323C83.4627 29.8323 83.2489 30.1675 83.2489 30.4487C83.2489 30.8334 83.4994 31.0226 84.0667 31.2415C84.7627 31.5104 85.1162 31.8461 85.1162 32.4502C85.1162 33.0844 84.6469 33.6339 83.6764 33.6339C83.28 33.6339 82.8469 33.5175 82.627 33.3716L82.7611 32.9257L82.7606 32.9267Z"
            fill="#161615" />
        <path
            d="M87.1338 29.5097C87.3899 29.4674 87.7256 29.4307 88.1532 29.4307C88.6777 29.4307 89.0619 29.5521 89.3062 29.772C89.5323 29.9674 89.6664 30.2664 89.6664 30.6327C89.6664 30.999 89.5568 31.2975 89.3491 31.5113C89.069 31.8103 88.6113 31.9623 88.0925 31.9623C87.9338 31.9623 87.7869 31.9562 87.6654 31.9256V33.5735H87.1343V29.5092L87.1338 29.5097ZM87.6649 31.4929C87.7807 31.5235 87.9272 31.5353 88.1037 31.5353C88.7445 31.5353 89.1353 31.2245 89.1353 30.6567C89.1353 30.0888 88.7506 29.8516 88.1649 29.8516C87.9333 29.8516 87.7557 29.8694 87.6649 29.8939V31.4924V31.4929Z"
            fill="#161615" />
        <path d="M90.3799 29.4609H90.911V33.1278H92.6687V33.5737H90.3799V29.4609Z" fill="#161615" />
        <path
            d="M93.9248 32.2798L93.4977 33.5737H92.9482L94.3457 29.4609H94.986L96.3896 33.5737H95.8222L95.3824 32.2798H93.9248ZM95.2732 31.8655L94.8707 30.6813C94.7789 30.413 94.7181 30.1686 94.6569 29.9308H94.6452C94.584 30.1752 94.5171 30.4252 94.4375 30.6752L94.035 31.8655H95.2738H95.2732Z"
            fill="#161615" />
        <path
            d="M97.3042 29.9125H96.0537V29.4609H99.0986V29.9125H97.842V33.5737H97.3047V29.9125H97.3042Z"
            fill="#161615" />
        <path
            d="M101.685 31.6451H100.086V33.1278H101.867V33.5737H99.5547V29.4609H101.776V29.9058H100.086V31.2058H101.684V31.6456L101.685 31.6451Z"
            fill="#161615" />
        <path
            d="M102.557 29.4609H104.772V29.9058H103.088V31.2727H104.644V31.7125H103.088V33.5737H102.557V29.4609H102.557Z"
            fill="#161615" />
        <path
            d="M109.043 31.4751C109.043 32.8904 108.183 33.641 107.133 33.641C106.084 33.641 105.284 32.7986 105.284 31.5542C105.284 30.2486 106.096 29.3945 107.194 29.3945C108.292 29.3945 109.043 30.2547 109.043 31.4757V31.4751ZM105.852 31.542C105.852 32.4205 106.328 33.2078 107.163 33.2078C107.999 33.2078 108.482 32.4328 108.482 31.4986C108.482 30.6808 108.055 29.8267 107.17 29.8267C106.285 29.8267 105.852 30.6384 105.852 31.5415V31.542Z"
            fill="#161615" />
        <path
            d="M109.731 29.5159C110 29.4613 110.385 29.4307 110.751 29.4307C111.318 29.4307 111.684 29.5342 111.941 29.7659C112.148 29.949 112.264 30.2296 112.264 30.547C112.264 31.0904 111.923 31.45 111.489 31.5965V31.6148C111.806 31.7245 111.996 32.0174 112.094 32.4444C112.228 33.0184 112.325 33.4148 112.411 33.5735H111.862C111.795 33.4572 111.703 33.1041 111.587 32.5914C111.464 32.0235 111.245 31.8103 110.763 31.7919H110.263V33.574H109.732V29.5159H109.731ZM110.263 31.3893H110.805C111.373 31.3893 111.733 31.0776 111.733 30.6082C111.733 30.0776 111.349 29.8449 110.788 29.8393C110.531 29.8393 110.348 29.8638 110.263 29.8883V31.3893H110.263Z"
            fill="#161615" />
        <path
            d="M116.48 31.7671C116.45 31.1941 116.413 30.5043 116.419 29.9916H116.401C116.26 30.4737 116.09 30.9859 115.882 31.5538L115.156 33.5492H114.753L114.088 31.5905C113.893 31.0109 113.728 30.4798 113.612 29.9921H113.6C113.588 30.5048 113.557 31.1941 113.521 31.8104L113.41 33.5737H112.904L113.191 29.4609H113.869L114.57 31.4502C114.741 31.9563 114.882 32.4079 114.985 32.8349H115.003C115.107 32.4206 115.254 31.9686 115.437 31.4502L116.169 29.4609H116.847L117.103 33.5737H116.584L116.48 31.7671Z"
            fill="#161615" />
        <path
            d="M120.049 31.6451H118.451V33.1278H120.232V33.5737H117.919V29.4609H120.14V29.9058H118.45V31.2058H120.049V31.6456L120.049 31.6451Z"
            fill="#161615" />
    </g>
    <defs>
        <clipPath id="clip0_2988_409">
            <rect width="120.918" height="40" fill="white" />
        </clipPath>
    </defs>
</svg>
    